<?xml version="1.0" encoding="UTF-8"?>
<svg id="_レイヤー_1" data-name="レイヤー_1" xmlns="http://www.w3.org/2000/svg" version="1.1" viewBox="0 0 120 6" preserveAspectRatio="none">
  <!-- Generator: Adobe Illustrator 30.4.0, SVG Export Plug-In . SVG Version: 2.1.4 Build 226)  -->
  <defs>
    <style>
      .st0 {
        fill: #f6be12;
      }
    </style>
  </defs>
  <path class="st0" d="M120,1.2c0,0,0-.3-.2-.2v.3c-.1,0,.2,0,.2,0Z"/>
  <path class="st0" d="M118.8.6c-.2.2-.4.5-.3.8.2-.3.2-.2.5-.6.2,0,.3,0,.3.2,0,0,.3,0,.4-.1-.2-.3-.5-.3-.8,0,0,0,0-.2,0-.2Z"/>
  <path class="st0" d="M101.8.7h.1s0,0-.1,0Z"/>
  <path class="st0" d="M91.2.9c0,0,.1,0,.1,0,0,0-.1,0-.1,0Z"/>
  <path class="st0" d="M89.4.6s0,0,.1,0c0,0,0,0-.1,0Z"/>
  <path class="st0" d="M101.8.7h-.3s.1,0,.3,0Z"/>
  <path class="st0" d="M116.5,1.5c0,0,.1,0,.2,0,0,0,0,0-.1,0,0,0,0,0,0,0Z"/>
  <path class="st0" d="M106.4.3h0s0,0,0-.1h-.2Z"/>
  <path class="st0" d="M110,0c0,0-.1.3-.1.4,0-.1,0-.2.2-.2,0,0,0-.1,0-.2Z"/>
  <path class="st0" d="M115.6.4h0s0,0,0,0Z"/>
  <path class="st0" d="M103.8.3s0,0,0-.1c0,0,0,0,0,.1Z"/>
  <path class="st0" d="M4.2,5.9s0,0,0,0c0,0,0,0,0,0Z"/>
  <path class="st0" d="M0,4.6h0c0,0,0-.1,0-.2v.2Z"/>
  <path class="st0" d="M86.1.3s0,0,0,0c0,0,0,0,0,0Z"/>
  <path class="st0" d="M55.9,1.6c.4.2-.5.3,0,.6,0-.1.5-.5,0-.6Z"/>
  <path class="st0" d="M116.4,1.5s0,0-.1,0c0,0,.1,0,.1,0Z"/>
  <path class="st0" d="M55.9,2.2s0,0,0,0h0s0,0,0,0Z"/>
  <path class="st0" d="M78.5.8s0,0,0,.1c0,0,0,0,0-.1Z"/>
  <path class="st0" d="M84.2,1h-.1c0,0,.1,0,.1,0Z"/>
  <path class="st0" d="M75.6,1.3c0,0-.1,0-.2,0,0,0,0,0,0,0,0,0,0,0,.2,0Z"/>
  <path class="st0" d="M72.5,1.4s0,0,0,0c0,0,0,0,0,0h-.2Z"/>
  <path class="st0" d="M13.5,5.4c0,0-.1-.2-.1-.3,0,.2-.4.3.1.3Z"/>
  <path class="st0" d="M116.5,1.4c0,0,0,.1,0,.1,0,0,0,0,.1,0,0,0,0,0,0-.1Z"/>
  <path class="st0" d="M75.5,3.5h-.5c.1,0,.3,0,.5,0Z"/>
  <path class="st0" d="M35.4,4.6h-.1s0,0,.1,0Z"/>
  <path class="st0" d="M73.6,3.6c0,0-.2-.2-.3-.2,0,0,0,0,0,0h.3Z"/>
  <path class="st0" d="M13.3,5.2s0,0,0,0c0,0,0,0,0,0Z"/>
  <path class="st0" d="M10.1,5.9c.5,0,.2-.4.3-.6.5-.1.3.3.5.5.3-.1.6-.5.9-.5,0,0,0,0,0,.2.4-.3,1.1,0,1.5-.4,0,0,0,0,0,0,0-.2,0-.4,0-.5.2,0,.4-.2.5,0-.1,0-.1,0-.2.2h.2c.2.2-.3,0-.3.3.4-.1.9-.4,1.2-.3,0,.3-.8.1-.3.4h-.5c.4.4-.3-.1,0,.4.7,0,.7-.2,1.4-.1.1-.2,0-.3,0-.5.9-.4.8.8,1.4.4.2-.2.2-.7.7-.5l-.2.4c.6,0,.3-.6,1-.3-.1.2-.5.1-.4.2.4.3.3-.2.6-.2v.3c.8,0,1.5-.4,2.3-.4,0,.1-.2.2,0,.3.9-.2,2,0,3,.1l.3-.3c0,0,.2.1,0,.2.4.1,0-.2.2-.3.2,0,.3.2.1.3.6-.3,1.8-.6,2.5-.3h-.1c.5.2.6-.5,1.1-.3h0c1.1.1,2.4-.2,3.2.2.1-.4,1.1.2,1.2-.4.7.3.5.4,1.4.6.2,0,.3-.4.6-.5v.3s.4-.3.4-.3l.2.4h.3c-.1-.1-.2-.2-.2-.3.4-.2,1.1.2,1.1.3l1-.3c0,.1-.2.2-.3.3.5-.3.1.3.6,0,0,0,0-.2,0-.3.3.2.8.2,1.3,0v.2c.7,0,1.5-.2,2.4-.2-.3,0-.3-.5,0-.5v.3c.3-.2-.2-.1.2-.4.3,0,.2.4,0,.5h.4s0,0,0,.2c.2-.2.7.3.9,0h0c.9,0,1.2,0,1.9,0,0-.3.3-.2.5-.5.5,0,1.1.3,1.7.2.4-.2.1-.2.3-.4,0,.3.7.2.3.4.7,0,1,0,1.9-.3-.1-.1-.2-.1-.2-.2.2,0,.4,0,.4.2h0c1-.4,2.5.7,3.3.1h0s.9-.3.9-.3c.4,0-.2.2,0,.4.9-.5,1.5,0,2.3-.3.6.7,2.1-.1,3,.3v-.2c.2-.2.2,0,.4.1,0-.1-.2-.2-.1-.3,1.8-.3,3.7.1,5.5.2.7,0,.3-.9,1.2-.5l-.2.3c1.3-.4,2.7,0,4.1-.5,0,0,0,.2-.2.2.3.2,1,0,1-.2.2,0,0,.2.2.3.3.1.7-.3.8,0,0,0,0,0-.1.1.2-.1.8,0,.7-.3.5.1.9-.2,1.3,0,.2-.3.8.1.9-.3,0,.5.9.3,1.2.1-.1.1.3.1.2.3.4,0,.7-.1.6-.3.7.5,1.3-.5,1.7.2,1.1-.3,2-.5,3-.6,0,.5-1.1,0-1,.6.9-.2,1.4-.6,2.3-.5.2,0-.1.2-.2.3.9-.2,1.7,0,2.5-.3,0,0,0,0-.2.1.2,0,.4,0,.3-.2h-.2c-.3-.2.6-.6.6-.7-.3.6.8.1.4.9.1,0,.2-.1.2-.3.2,0,.2.1,0,.3.6-.1.4-.3.9-.4,0,.1-.1.1-.2.3.3-.2.5-.4.9-.3,0,0,0,.1-.1.1.7,0,1.3-.6,2.1-.4-.2.4.3.1.3.5h.4c0-.1-.2-.3-.2-.3.4,0,.7-.3,1.1-.2l-.3.2h.7c0,0-.4-.2-.4-.2.4-.2,0-.5.5-.4-.1,0,.4,0,.6.2,0,0,0,0,0,0,.2-.1.4-.3.7-.2,0,.1,0,.4,0,.5.2-.3.9-.1,1.1-.5,0,0,0,.3,0,.3v-.3c.3,0,.4.1.3.3.5,0-.2-.5.5-.3,0,0,0,0-.1.1.6,0,1.2-.2,1.8,0,.2.4-.5.1-.3.4.8,0,1.7-.5,2.6-.5h-.2c0-.6.6.2,1,0-.1,0-.1.3,0,.2.6,0,1.1-.2,2-.4h-.1c.3.3.9.2,1.2.2.1-.1.3-.1.2-.3,1.1.7,2.1-.5,3.1.1-.1,0-.3.1-.2.1l.8-.2c0-.2-.1-.1-.3-.3.1-.1.3-.3.5-.3-.4.2,0,.4.2.5,0,0,0-.2,0-.2.4.4,0-.5.7-.2h0c.2,0,.4-.1.7,0,.1.3-.2.1-.2.4.3,0,.6-.5,1-.3-.1,0-.3,0-.5.2.3.3.4.2.6.3h0s.6.1.6.1h-.1c.4-.8.9-.2,1.4-.7-.5.5,0,.3-.1.6.1,0,.4.2.3.3.3-.3.5.2.8-.2,0,0,.3,0,.2.2.3,0,0-.2,0-.3.5-.4,1.3.4,2-.1.7-.2.8-.5,1.4-.7.2.2-.2.4-.2.4.3.1.6,0,.9,0,0,0,0,.2.1.3.3,0,.2-.4.5-.2,0,.1-.1.3-.2.4.3-.1.6-.3.9-.4,0,.2-.2.3-.3.4.3,0,.9-.2,1-.5h-.2c.1-.1,0,.1,0,.2-.3.2-.4,0-.5-.2h.2c-.2-.6-.9,0-1.3,0l.2-.4-.4.4c-.1-.1-.2-.3,0-.4-.3-.2-.3.2-.6,0,0,0,0,0,0,0h-.3c0,0,0-.2.1-.1-.6-.2-.9.3-1.1,0h0c-.8.1,0,.3-.6.7l-.4-.7v.3c-.1,0-.3,0-.3-.2-.3.2,0,.1-.1.3-.4-.3-1.1.2-1.2-.3-.1.2.4.2,0,.3-.1-.5-.5.1-.8-.1,0-.3.4-.1,0-.4-.2.5-.7,0-1,0,0,.4-.6.2-1.1.3,0-.1-.9-.2-1.4-.3h0c0,.3-.6.3-.9.3,0-.2,0-.3.3-.4h-.3c0,.1-.2.2-.4.3V.2c-.4,0-.8.4-1.4.2,0,.3.5.7-.1.9,0-.1,0-.4,0-.4,0,0-.2.1-.3,0l.2-.2c-.3,0-.1.2-.3.2,0-.2-.2-.1-.1-.3,0,0,.2,0,.3,0-.2,0-.5-.1-.6-.3,0,.1,0,.3-.2.3-.4,0-.2-.2-.4-.3-.1.1-.4,0-.4.3-.1,0-.2-.1-.2-.2-.2.1-1.1,0-.8.4h0s0,0,0,0h0s0,0,0,0c-.7.3-1.5-.1-2.3,0h0c-.4,0-1,0-1.3.2-.1,0-.3-.2-.3-.3-.3,0-.4.2-.9,0,.3-.2-.1-.2.3-.1-.4,0-.5-.2-1,0,.2-.3-.3-.3-.5-.2l.3.2c-.2,0-.4,0-.6,0v-.3c-.8-.4-1.5.8-2.2,0-.2.2.5.1.3.4-.4,0-.9-.5-1-.5-.6-.2-.5.5-1.1.4,0,.1.2.4-.3.6-.4,0-.5-.5-.3-.6,0,0,.1,0,.1,0,.1,0,.3-.1.1-.2h0c-.2,0-.8,0-.6-.2-.3.1-.1.2.1.3-.5-.2-.8,0-1.4,0,0,0,.2.2,0,.2-.8-.1-.3.2-.9.3-.3-.2,0-.4-.4-.3-.3-.1,0-.3,0-.4-.5.2-.9-.1-1.2-.2h.3c-.2,0-.3,0-.4,0l.2.2c-.2,0-.3,0-.3-.1-.2.2.1.4-.2.6-.2-.1-.6.2-.7-.2.6,0,0-.3.5-.4-.1,0-.2,0-.4,0,0,0,0,0,0,0-.6-.3-.3.4-.9.4,0-.2-.2-.3-.3-.3.3,0,.1.3,0,.4-.4-.1-.4.1-.7.1h.2c0,.2-.3.2-.6.3,0-.1.3-.1.2-.2-.3.3-.7-.3-1.2,0-.2-.1,0-.3-.2-.4-.5.2-.5-.2-1.1,0,.2.2.2.2-.2.4l.8-.2-.5.4c.3,0,.5-.2.7-.1-.3.2-.2.1-.1.3-.4-.3-.7.2-1.1,0v-.6c-.6-.2-1.1.3-1.9.2h.3c0,.3-.5.1-.7.3,0-.2-.1-.3-.3-.4,0,.1-.6,0-.6.4l-.4-.3c-.6,0-.7.6-1.3.5.2-.2-.1-.4.3-.5-.2,0-.4,0-.4.1-.1-.1-.6.3-.8.1,0,0-.1.3-.3.3,0,0,0,0,0,0,0,0-.4.1-.1.4-.7-.6-1.8.1-2.3-.4-.4,0-1,.2-1.4.2,0,0,0,0,0,0-.6-.2-.3.6-1,.4-.3-.3.3-.2.1-.3-.1-.7-.8.1-1.2-.3h.1c-.3-.3-.8.2-1.3.2,0,0,0,0,0,0-.4.3-1,.5-1.6.6.2-.3.2-.1.1-.4-.2,0,0,.4-.4.5-.2-.1-.5-.2-.5-.5h.4c-.2-.4-.6,0-.8,0v-.2c-.6,0-.6.5-1.4.5h0c-.4.5-.3,0-.7.2v-.4c-.4.1-1,.4-1.5.5.3-.3.8-.5,1.1-.7-.3,0-.9,0-1,.3.1,0,.2-.1.3,0-.3.3-.7.5-1.2.5,0-.8-1.3-.1-1.7-.7-.9.3-1.8,0-2.9,0,.4.6-.3,0-.2.6-.2,0-.3,0-.4,0l-.8-.3c-.2-.2.2-.1.2-.3-.5,0-.2-.3-.6-.4,0,.2-.2.3-.5.2l.4.3c-.7.4-.7-.5-1.4-.1l.2-.2c-.4.1-1.4,0-1.8.6,0,0-.2-.2,0-.3-.9,0-2.1.6-2.8.3v-.2c-.1,0-.2.3-.4.1,0,0,0-.2,0-.2,0,0-.5.3-.7.2l.2-.2c-.9-.2-1.4.5-2.1.6,0-.4-.7-.6-1.1-.6h0c-1.1,0-1.8.4-2.8.6-.6-.5-2.1-.1-3-.4.2,0,0,.3-.2.4-.2,0-.6.3-.6,0h0c-.2-.4-.7-.3-1-.3v.5c-1-.7-2.6.4-3.1-.3-.2.1-.5.1-.7.3v-.3c-.6,0-1,0-1.8,0l.2-.2c-.4,0-.5.8-1,.9v-.4c-.9,0-1.7-.3-2.5,0,0,0,0-.2.2-.2-.4,0-1.4-.2-1.3.3,0-.4-.8,0-1.2.2v-.3c-.3.4-.3.5-.8.6-.1,0-.1-.2,0-.2-.4-.1-.3.3-.8.1l.2-.2c-.4,0-.4,0-.6.3-.3.1-.8,0-.8-.3,0,.2-.3.4-.5.3,0,0,0-.2,0-.2-.7-.2-1,.4-1.5.1,0,0,0-.1,0-.2.5,0,1,0,.9,0,0-.3-.4-.3-.1-.7-.3.2-.9.7-1.3.5,0,0,0,0,0,0h0c0,0-.2,0-.3,0-.1,0-.2,0-.4,0,0-.2-.5,0-.7-.1,0,.3-.3.2,0,.5,0,0,0,0,.2,0,0,0,0,0,0,0,0,0,0,0,0,0,.1,0,.3,0,.5,0-.2.2-.3.3-.6.1-.1.2-.2.4-.3.5-.3-.4-.9-.6-1-.8-.7.2-1.6.2-1.9.7-.2,0-.2-.1-.3-.2.1,0,.2,0,.3-.1-.4.1-1.1,0-1.2.5-.5-.2.3-.4-.4-.3h0c-1.3-.7-2,.9-3.5.2,0,0,.1,0,.2.1-1.6-.3-3.3.4-4.9,0-.5,0-.5.1-.8.3v-.3c-.1,0-.6.4-.6.4-.7.3-1.2-.7-2-.2v.2c-.2,0-.8.2-.8,0,0,0,0,.2-.2.1v-.2s-.8.3-.8.3c-.6,0,0-.6-.8-.6-.3,0-.9.5-.8.6.1,0,.3,0,.3.2H0c0,.6-.2,1.1.5,1.4l.5-.3.2.2h-.4c.2.2.4,0,.5,0,0,.1.1.2.2.2l.5-.5c0,.2-.2.4.1.5.2-.2-.2-.4.1-.6.2.2.2.4.4.2,0,.1,0,.2-.1.3.2-.2.6,0,.8-.3.3.3.8,0,.8.3,0-.1.4-.4.6-.4-.4.5.8,0,.8.6.3-.5,1.1-.3,1.6-.5,0,0,0,.1-.1,0,.3,0,.4.2.6.3,0-.4.5-.5.7-.8.4.4-.2.5,0,.8,0-.3.6-.3.5-.6.3.2.2.1.4.4,0-.5.3,0,.5-.4.4.2.1.5.6.3.2.1-.2.3-.2.3ZM20.9,4.7s0,0,0,0c0,0-.2,0-.2,0,0,0,.1,0,.2,0ZM21.8,4.7c-.1,0-.2,0-.4,0,0,0,0-.2,0-.2,0,0,.2.1.3.2ZM19.8,2.8c.1,0,.2,0,.2,0,0,0-.1,0-.3,0,0,0,0,0,0,0,0,0,0-.1,0-.1Z"/>
  <path class="st0" d="M19.6,3.2s0,0,0,0c0,0,0,0,0,0,0,0,0,0,0,0,0,0,0,0,0,0Z"/>
  <path class="st0" d="M101.9.7h0s0,0,0,0c0,0,0,0,0,0Z"/>
  <polygon class="st0" points="34.4 4.8 34.4 4.7 34.3 4.8 34.4 4.8"/>
  <path class="st0" d="M106.9,1.5s0,0,0,0c0,0,0,0,0,0Z"/>
  <path class="st0" d="M109.1,1.5h.3c-.1,0-.2,0-.3,0Z"/>
  <path class="st0" d="M110.7,1.6c0,0,0,0,0-.1,0,0,0,0,0,0h0Z"/>
  <path class="st0" d="M84.4,2.9s0,0,0,0c-.1,0,0,0,0,0Z"/>
  <path class="st0" d="M92.2,1.9c0,0-.2.1-.2.1.1,0,.2,0,.2-.1Z"/>
  <path class="st0" d="M75.6,3.5s0,0,0,0c0,0,0,0,0,0h0Z"/>
  <path class="st0" d="M91.6,2.1c.1,0,.3,0,.4,0-.1,0-.3,0-.4,0Z"/>
  <path class="st0" d="M117.9,1.5h0s0,0,0,0h0Z"/>
  <path class="st0" d="M118,1.5h0s0,0,0,0Z"/>
  <path class="st0" d="M118.3,1.4h-.2c0,0,.1,0,.2,0Z"/>
  <path class="st0" d="M115.7,1.4h0c0,0,0,0,0,0Z"/>
  <path class="st0" d="M115.1,1.5c.2,0,.4.2.6.1h0c0,0-.5-.3-.6-.1Z"/>
  <path class="st0" d="M112.2.3h.6c-.1,0-.2-.2,0-.2-.7-.3.2.2-.6.2Z"/>
  <path class="st0" d="M110.5.2c.3,0,0-.2,0-.2-.2.1-.2.1,0,.2Z"/>
  <path class="st0" d="M98,.7v-.3c-.2,0,0,.1,0,.3Z"/>
  <polygon class="st0" points="95.6 2.1 95.8 2.2 95.9 2 95.6 2.1"/>
  <polygon class="st0" points="94.1 .3 94.2 .2 93.9 .3 94.1 .3"/>
  <path class="st0" d="M73.1,1.1v.3c.2,0,.3-.4,0-.3Z"/>
  <path class="st0" d="M64,1.7c-.1-.2-.4-.2-.5,0,.2,0,.4.1.5,0Z"/>
  <polygon class="st0" points="36.7 2.2 36.9 2 36.5 2.1 36.7 2.2"/>
</svg>